<svg xmlns="http://www.w3.org/2000/svg" xmlns:xlink="http://www.w3.org/1999/xlink" viewBox="0 0 382.61 153.51"><defs><style>.cls-1{fill-rule:evenodd;fill:url(#radial-gradient);}.cls-2{fill:#35b6b4;}.cls-3{fill:#566177;}</style><radialGradient id="radial-gradient" cx="316.36" cy="12.19" fx="249.33636638038337" r="102.58" gradientTransform="translate(22.27 38.33) scale(0.97)" gradientUnits="userSpaceOnUse"><stop offset="0.41" stop-color="#35b6b4"/><stop offset="0.52" stop-color="#3ea1a0"/><stop offset="0.66" stop-color="#478a8a"/><stop offset="0.79" stop-color="#4c7d7d"/><stop offset="0.91" stop-color="#4e7879"/></radialGradient></defs><g id="Layer_2" data-name="Layer 2"><g id="Layer_1-2" data-name="Layer 1"><path class="cls-1" d="M378.71,88.21c-1.45.63-3.39,4.05-4.17,7.61-.83,3.35-.29,5.16,1.08,4.13,1.08-1.09,2.57-4.29,3.54-7.27S379.9,87.47,378.71,88.21Zm1.82-15.27c-1.53.25-3.16,3.57-3.47,7.39s.56,6.37,2,5.79c1.18-.6,2.38-3.84,2.86-7.23S381.75,72.81,380.53,72.94Zm2.07-10.33c-.19-3.5-1.2-6.65-2.4-7-1.52-.32-2.75,2.5-2.56,6.46s1.51,7,3,6.95C381.89,68.94,382.68,66.11,382.6,62.61ZM381,48.13c-.71-3.29-2.05-6.47-3.19-7.34-1.42-.74-2.22,1.5-1.61,5.13s2.3,7.13,3.8,7.57C381.18,53.92,381.53,51.44,381,48.13Zm-3.69-13A37.42,37.42,0,0,0,373.47,28c-1.28-1.2-1.61.26-.58,3.35.94,3.26,3,6.63,4.4,7.5C378.41,39.73,378.33,38.05,377.28,35.18Zm-4-8.25h0a82.68,82.68,0,0,0-6.39-9.58c-.31-.27,0,.5,1,2.15a34.86,34.86,0,0,0,4.8,6.92C373.18,27,373.38,27.15,373.28,26.93Zm-43.79-4.71c-.34-4-4.2-7.36-8.61-7.66s-8.14,2.75-8,6.8c.14,4.23,4.09,7.88,8.81,8S329.79,26.35,329.49,22.22Zm-30-8.18c-4.63.09-8.47,3.36-8.63,7.4-.17,4.22,3.62,7.66,8.41,7.61s8.72-3.55,8.66-7.79C307.87,17.2,304.05,14,299.46,14ZM282.13,1.12c-4,.51-7.65,3.26-8.28,6.31-.5,3.25,2.48,5.68,6.73,5.3s8.22-3.45,8.46-6.8C289.32,2.79,286.22.71,282.13,1.12ZM299.73,0c-4.22.12-7.85,2.64-8.11,5.78-.2,3.37,3.31,6.13,7.85,6s8.24-2.9,8.15-6.28C307.52,2.38,304,0,299.73,0Zm28.06,6.84c-.48-3.07-4.16-5.77-8.22-6.17-4.23-.32-7.46,1.86-7.27,5,.14,3.38,3.91,6.44,8.37,6.68S328.24,10.14,327.79,6.84Zm16.37,2.7c-.84-2.93-4.35-5.79-8-6.59s-6.46,1.12-5.91,4.17c.5,3.3,4.26,6.52,8.33,7.09C342.45,14.82,344.92,12.68,344.16,9.54Zm28,64.18c-2.71.19-5.25,3.81-5.52,8.06s1.66,7.17,4.29,6.72c2.4-.53,4.55-4.08,5-7.94S374.6,73.54,372.15,73.72ZM358.8,53.24c-3.7-.21-6.72,3.36-6.62,8s3.2,8.38,6.93,8.32c3.51-.06,6.2-3.6,6.15-8S362.28,53.45,358.8,53.24Zm13.07,1.08c-2.71-.28-4.91,3-4.76,7.29s2.44,7.78,5.16,7.75c2.45-.12,4.25-3.28,4.18-7.32S374.3,54.61,371.87,54.32ZM321.8,32.05a8,8,0,0,0-8.5,8.14,9.13,9.13,0,0,0,9,8.86,8,8,0,0,0,8.34-8.38A9.26,9.26,0,0,0,321.8,32.05Zm27.14,9.75c-.36-4.4-4-8.23-8.11-8.59a6.91,6.91,0,0,0-7.5,7.57,9.23,9.23,0,0,0,8.46,8.85C346.09,49.84,349.24,46.28,348.94,41.8Zm15.16,1.67c-.5-4.13-3.53-7.84-6.9-8.37-3.59-.53-6.3,2.52-5.91,6.9s3.67,8.32,7.36,8.6C362.13,50.86,364.5,47.64,364.1,43.47ZM375,45.63c-.61-3.75-2.86-7.23-5.22-8-2.59-.64-4.4,2.07-3.91,6.07.44,4.18,3.09,7.83,5.77,8.15C374.1,52.23,375.54,49.42,375,45.63Zm-28-21.47a10.17,10.17,0,0,0-8.2-7.86c-4.05-.5-7.15,2.17-6.73,6.14a9.51,9.51,0,0,0,8.46,8.2C344.73,31.05,347.6,28.13,347.05,24.16Zm14.44,2.89c-.83-3.51-4-7-7.15-7.82-3.35-.77-5.71,1.51-5.06,5.28s4,7.65,7.6,8.2C360.21,33.27,362.24,30.73,361.49,27.05Zm10.32,3.73c-1-3.16-3.46-6.51-5.62-7.56-2.45-1.06-3.83.85-3,4.31.77,3.62,3.61,7.23,6.21,8C371.72,36.24,372.73,34.11,371.81,30.78ZM357.5,13.5a14.19,14.19,0,0,0-7.15-6.73c-3.1-1-5,.34-4.09,3.26.78,3.09,4.23,6.38,7.6,7.23C357,18.15,358.58,16.42,357.5,13.5Zm9.42,5.13a25.58,25.58,0,0,0-5.88-6.7c-2.16-1.32-3.1-.39-1.94,2.25,1.07,2.83,4.06,6.16,6.44,7.23C367.66,22.49,368.23,21.22,366.92,18.63Z"/><polygon class="cls-2" points="19.62 137.06 18.42 135.89 17.29 137.07 18.47 138.25 19.62 137.06"/><polygon class="cls-2" points="16.79 137.06 15.59 135.89 14.43 137.07 15.61 138.25 16.79 137.06"/><polygon class="cls-2" points="24.32 149.66 25.5 150.84 26.68 149.64 25.48 148.47 24.32 149.66"/><path class="cls-2" d="M30.44,144.15a4.28,4.28,0,0,0-.09-.83c-.05-.3-.12-.62-.21-1L29.57,140l-1.69.51c.08.32.16.68.25,1.07s.19.76.27,1.14.15.7.21,1a4.76,4.76,0,0,1,.08.65c0,.22-.06.36-.19.42a1.72,1.72,0,0,1-.66.09H20.5a1.63,1.63,0,0,1-1.15-.32,2.24,2.24,0,0,1-.52-1.16L18.1,140l-1.69.51c.08.32.16.68.26,1.07s.18.76.26,1.14.15.7.21,1a4.79,4.79,0,0,1,.08.67.37.37,0,0,1-.19.38,1.51,1.51,0,0,1-.66.1H5.27v2H8.51v.68a1.72,1.72,0,0,1-.3,1.07,1.77,1.77,0,0,1-.8.58,4.2,4.2,0,0,1-1.14.22c-.44,0-.88,0-1.35,0s-1.1,0-1.5-.06a2.41,2.41,0,0,1-1-.3,1.35,1.35,0,0,1-.54-.66,3,3,0,0,1-.17-1.15,9.62,9.62,0,0,1,.18-1.83,14.7,14.7,0,0,1,.42-1.68l-1.66-.45a16.65,16.65,0,0,0-.48,1.91A10.86,10.86,0,0,0,0,147.25a5.12,5.12,0,0,0,.35,2,3.13,3.13,0,0,0,1,1.29,4,4,0,0,0,1.54.68,9.8,9.8,0,0,0,2,.2A12.55,12.55,0,0,0,7,151.25a4.47,4.47,0,0,0,1.68-.61,3.25,3.25,0,0,0,1.14-1.24,4.42,4.42,0,0,0,.41-2v-.28a2.45,2.45,0,0,0,0-.27h6.12a2.57,2.57,0,0,0,1.21-.28,2.16,2.16,0,0,0,.87-.8,2.14,2.14,0,0,0,.8.78,2.21,2.21,0,0,0,1.14.3h7.58a2.64,2.64,0,0,0,1-.18,2.29,2.29,0,0,0,.79-.53,2.37,2.37,0,0,0,.53-.84A3.3,3.3,0,0,0,30.44,144.15Z"/><polygon class="cls-2" points="27.18 149.66 28.36 150.84 29.51 149.64 28.31 148.47 27.18 149.66"/><path class="cls-2" d="M43.22,146.83a2.68,2.68,0,0,0,1-.18,2.39,2.39,0,0,0,.79-.53,2.35,2.35,0,0,0,.52-.84,3.08,3.08,0,0,0,.19-1.13,4.22,4.22,0,0,0-.08-.83c-.05-.3-.13-.62-.22-1L44.85,140l-1.63.51c.08.32.16.68.25,1.07s.17.76.25,1.14.14.7.2,1a4.76,4.76,0,0,1,.08.65q0,.33-.21.42a1.78,1.78,0,0,1-.67.09H37.65a1.76,1.76,0,0,1-.9-.2,1.72,1.72,0,0,1-.55-.52,2.72,2.72,0,0,1-.33-.66c-.08-.24-.14-.46-.2-.66l-.53-2-1.64.66c.11.35.22.71.33,1.09s.21.77.3,1.17.16.8.21,1.19a7.75,7.75,0,0,1,.09,1.16,3.86,3.86,0,0,1-.18,1.17,3.5,3.5,0,0,1-.48,1,2.41,2.41,0,0,1-.75.71,1.82,1.82,0,0,1-1,.27,5.09,5.09,0,0,1-.81-.07,6.74,6.74,0,0,1-.75-.17l-.42,1.85c.36.1.71.19,1.06.26a4.15,4.15,0,0,0,.92.12,3,3,0,0,0,1.7-.49,4.79,4.79,0,0,0,1.3-1.24,5.73,5.73,0,0,0,.82-1.64,5.5,5.5,0,0,0,.29-1.68,1.94,1.94,0,0,0,.54.49,1.42,1.42,0,0,0,.79.19h5.73Z"/><polygon class="cls-2" points="44.2 149.66 45.38 150.84 46.53 149.64 45.33 148.47 44.2 149.66"/><polygon class="cls-2" points="41.34 149.66 42.52 150.84 43.7 149.64 42.51 148.47 41.34 149.66"/><path class="cls-2" d="M67,141.58a3.64,3.64,0,0,0-1.07-1,2.63,2.63,0,0,0-1.39-.37,3.09,3.09,0,0,0-1.14.2,2.93,2.93,0,0,0-.92.62,5.7,5.7,0,0,0-.78,1c-.24.39-.49.86-.75,1.39-.14.29-.26.52-.36.7a1.29,1.29,0,0,1-.33.41.86.86,0,0,1-.43.2,3.24,3.24,0,0,1-.69.05H57.9a2.92,2.92,0,0,1-.6-.05,1.8,1.8,0,0,1-.56-.2,1.9,1.9,0,0,1-.54-.44,4.81,4.81,0,0,1-.53-.8L52.81,138l-1.54.84c.54,1,1,1.82,1.37,2.47l.9,1.59c.22.41.38.71.48.91a1.28,1.28,0,0,1,.14.45.45.45,0,0,1-.19.43,1.92,1.92,0,0,1-.78.1H51a1.72,1.72,0,0,1-1.17-.33,1.49,1.49,0,0,1-.36-1.13v-.45H47.76v.25a2.72,2.72,0,0,0,0,.28,5.07,5.07,0,0,0,.25,1.32,3,3,0,0,0,.6,1.07,2.88,2.88,0,0,0,1,.72,3.31,3.31,0,0,0,1.39.27h2.14a2.75,2.75,0,0,0,1.48-.37,2.84,2.84,0,0,0,.92-.94,3.43,3.43,0,0,0,.88,1,2.21,2.21,0,0,0,1.31.35h2.05a2.37,2.37,0,0,0,1-.21,2.29,2.29,0,0,0,.9-.85,7.8,7.8,0,0,0,1.92.81,7.45,7.45,0,0,0,2,.28,2.17,2.17,0,0,0,1-.2,2.15,2.15,0,0,0,.75-.55,2.35,2.35,0,0,0,.48-.81,2.93,2.93,0,0,0,.17-1,4.66,4.66,0,0,0-.94-2.74Zm-1,3.2a.69.69,0,0,1-.34.09,6.65,6.65,0,0,1-1.64-.21,7.2,7.2,0,0,1-1.55-.59,5.71,5.71,0,0,1,.85-1.31,1.51,1.51,0,0,1,1.16-.45,1.55,1.55,0,0,1,1.2.55,2.26,2.26,0,0,1,.48,1.51A.47.47,0,0,1,66.07,144.78Z"/><path class="cls-2" d="M83.46,143.88a1.88,1.88,0,0,0-.58-.45,1.84,1.84,0,0,0-.83-.18H80.22a.8.8,0,0,1-.39-.09.42.42,0,0,1-.16-.37,1.79,1.79,0,0,1,.2-.72,3.59,3.59,0,0,1,.48-.82,3.13,3.13,0,0,1,.65-.66,1.08,1.08,0,0,1,.69-.28,1.58,1.58,0,0,1,.65.14,1.82,1.82,0,0,1,.54.33l.93-1.28a4.34,4.34,0,0,0-.89-.71,2.26,2.26,0,0,0-1.2-.32,2,2,0,0,0-1,.25,3.6,3.6,0,0,0-.89.66,6.27,6.27,0,0,0-.8,1,7.16,7.16,0,0,0-.64,1.1,8,8,0,0,0-.43,1.14,3.94,3.94,0,0,0-.15,1,1.67,1.67,0,0,0,.41,1.14,1.41,1.41,0,0,0,1.13.49H82.2a2.69,2.69,0,0,1-.34,1.49,2,2,0,0,1-.93.77,4.07,4.07,0,0,1-1.39.3c-.53,0-1.1,0-1.69,0a12.61,12.61,0,0,1-1.51-.08,2.36,2.36,0,0,1-1-.31,1.28,1.28,0,0,1-.54-.65,3.22,3.22,0,0,1-.17-1.14,8.91,8.91,0,0,1,.2-1.83,14.7,14.7,0,0,1,.42-1.68l-1.68-.45a15.24,15.24,0,0,0-.47,1.91,10.86,10.86,0,0,0-.19,2.05,5.09,5.09,0,0,0,.34,2,3.23,3.23,0,0,0,1,1.29,4,4,0,0,0,1.55.68,9.66,9.66,0,0,0,2,.2,12.92,12.92,0,0,0,2.52-.22,5.21,5.21,0,0,0,1.91-.76,3.63,3.63,0,0,0,1.22-1.41,5,5,0,0,0,.43-2.21,2.18,2.18,0,0,0-.12-.72A1.66,1.66,0,0,0,83.46,143.88Z"/><path class="cls-2" d="M100.31,141.78a11.41,11.41,0,0,0-1-1.34q-.57-.66-1.17-1.26c-.4-.4-.78-.77-1.15-1.11l-1-.9-1.07,1.28,1.4,1.18a11.28,11.28,0,0,1,1.07,1,16.4,16.4,0,0,1,1.07,1.3,8.5,8.5,0,0,1,.83,1.33,2.61,2.61,0,0,1,.34,1.15.39.39,0,0,1-.1.26.37.37,0,0,1-.32.12h-2a2,2,0,0,0,.31-.74,3.89,3.89,0,0,0,.09-.85,4.65,4.65,0,0,0-.17-1.21,3.61,3.61,0,0,0-.53-1.12,2.77,2.77,0,0,0-.88-.82,2.26,2.26,0,0,0-1.23-.33,2.7,2.7,0,0,0-1.29.34,3.87,3.87,0,0,0-1.08.85,3.92,3.92,0,0,0-.74,1.18,3.1,3.1,0,0,0-.28,1.26,2.37,2.37,0,0,0,.45,1.44H88.88a1,1,0,0,1-.84-.29,1.43,1.43,0,0,1-.22-.87V133.61H86.09v10.73a2.43,2.43,0,0,0,.67,1.87,2.37,2.37,0,0,0,1.68.62h4a4.62,4.62,0,0,0,1-.1,3.67,3.67,0,0,0,.93-.33,3.19,3.19,0,0,0,.51.2,5.84,5.84,0,0,0,.63.13c.21,0,.42.06.63.07l.54,0H99a2.32,2.32,0,0,0,.92-.18,2,2,0,0,0,.73-.49,2.34,2.34,0,0,0,.46-.76,2.69,2.69,0,0,0,.17-1,3.32,3.32,0,0,0-.28-1.31A6.88,6.88,0,0,0,100.31,141.78Zm-4.88,2.62a3.27,3.27,0,0,1-1,.75,5.17,5.17,0,0,1-.83-.72,3,3,0,0,1-.6-1,2.44,2.44,0,0,1,.69-1.22,1.48,1.48,0,0,1,1-.39,1.08,1.08,0,0,1,.56.14,1.28,1.28,0,0,1,.38.39,2.18,2.18,0,0,1,.27,1A1.5,1.5,0,0,1,95.43,144.4Z"/><polygon class="cls-2" points="122.68 137.06 121.48 135.89 120.35 137.07 121.53 138.25 122.68 137.06"/><polygon class="cls-2" points="119.85 137.06 118.66 135.89 117.49 137.07 118.67 138.25 119.85 137.06"/><polygon class="cls-2" points="141.08 149.66 142.26 150.84 143.44 149.64 142.24 148.47 141.08 149.66"/><polygon class="cls-2" points="143.94 149.66 145.12 150.84 146.27 149.64 145.07 148.47 143.94 149.66"/><path class="cls-2" d="M160.55,143.35l-.83-3.09-1.7.52c.21.74.38,1.34.52,1.8l.31,1.11c.08.27.13.47.16.6a1.16,1.16,0,0,1,0,.26.38.38,0,0,1-.43.43,3.61,3.61,0,0,1-1.37-.28,11.07,11.07,0,0,1-1.29-.61c0-.26,0-.54,0-.86s0-.61.05-.89,0-.64.05-1l-1.71-.07-.15,2.24c0,.24-.05.44-.08.6a.77.77,0,0,1-.17.4.8.8,0,0,1-.37.22,2.57,2.57,0,0,1-.63.06h-.7a1.27,1.27,0,0,1-.63-.14,1.29,1.29,0,0,1-.44-.36,1.56,1.56,0,0,1-.27-.51,1.88,1.88,0,0,1-.09-.57l-.08-2-1.71.07.06,1.88a6,6,0,0,1,0,.75,1.56,1.56,0,0,1-.14.51.68.68,0,0,1-.35.29,1.71,1.71,0,0,1-.61.09H146.4a1.66,1.66,0,0,1-1.15-.32,2.17,2.17,0,0,1-.51-1.16L144,140l-1.7.51c.08.32.16.68.26,1.07s.18.76.26,1.14.16.7.21,1a3.62,3.62,0,0,1,.08.67.37.37,0,0,1-.19.38,1.43,1.43,0,0,1-.65.1H139.5a1.69,1.69,0,0,1-.74-.14,1.61,1.61,0,0,1-.52-.36,1.78,1.78,0,0,1-.35-.51,4.07,4.07,0,0,1-.22-.58l-.79-3-1.7.52.51,1.8c.14.46.24.83.32,1.11s.13.47.16.6a1.16,1.16,0,0,1,0,.26.38.38,0,0,1-.43.43,3.36,3.36,0,0,1-1.38-.31,11.68,11.68,0,0,1-1.28-.65c0-.26,0-.54,0-.85s0-.6.05-.86,0-.62.05-.93l-1.72-.07-.14,2.24c0,.24,0,.44-.08.6a.77.77,0,0,1-.17.4.8.8,0,0,1-.37.22,2.68,2.68,0,0,1-.63.06h-.7a1.27,1.27,0,0,1-.63-.14,1.2,1.2,0,0,1-.44-.36,1.56,1.56,0,0,1-.27-.51,1.88,1.88,0,0,1-.09-.57l-.08-2-1.71.07.06,1.88a6,6,0,0,1,0,.75,1.34,1.34,0,0,1-.15.51.62.62,0,0,1-.34.29,1.71,1.71,0,0,1-.61.09h-1.63a1.66,1.66,0,0,1-1.15-.32,2.17,2.17,0,0,1-.51-1.16l-.73-3.4-1.7.51c.08.32.16.68.26,1.07s.18.76.26,1.14.16.7.21,1a3.62,3.62,0,0,1,.08.67.37.37,0,0,1-.19.38,1.43,1.43,0,0,1-.65.1h-5.59a1.21,1.21,0,0,1-.66-.18,1.75,1.75,0,0,1-.5-.48,3.36,3.36,0,0,1-.39-.67c-.12-.25-.23-.5-.33-.74a5.24,5.24,0,0,0-.5-.93,4.05,4.05,0,0,0-.68-.8,3.67,3.67,0,0,0-.86-.57,2.39,2.39,0,0,0-1-.21,2.62,2.62,0,0,0-1.05.2,2.58,2.58,0,0,0-.83.64,6.5,6.5,0,0,0-.74,1c-.24.42-.49.91-.77,1.47h-.2a2.58,2.58,0,0,0-1.86.69,2.49,2.49,0,0,0-.72,1.89c0,1.13,0,2.09,0,2.88s0,1.46,0,2,0,1,.08,1.4.07.72.11,1l1.68-.26c-.09-.7-.15-1.36-.17-2s0-1.29,0-2V146.9a1.49,1.49,0,0,1,.3-1,1,1,0,0,1,.83-.37,2.69,2.69,0,0,1,.9.21c.37.14.76.28,1.17.45s.82.31,1.23.44a3.25,3.25,0,0,0,1,.21,2.56,2.56,0,0,0,1.24-.3,2.09,2.09,0,0,0,.86-.83,2,2,0,0,0,.64.82,1.36,1.36,0,0,0,.82.28h5.88a2.54,2.54,0,0,0,1.21-.28,2.16,2.16,0,0,0,.87-.8,2.25,2.25,0,0,0,2,1.08h2.37a1.58,1.58,0,0,0,1-.36,1.63,1.63,0,0,0,.59-.92,1.78,1.78,0,0,0,.65.93,1.82,1.82,0,0,0,1.09.35h1.71a1.62,1.62,0,0,0,.49-.08,4,4,0,0,0,.47-.21,1.73,1.73,0,0,0,.66-.61,7.42,7.42,0,0,0,.69.34q.39.18.81.33c.28.1.57.18.85.25a3.79,3.79,0,0,0,.77.1,2.39,2.39,0,0,0,1.11-.25,2.08,2.08,0,0,0,.82-.67,1.77,1.77,0,0,0,.79.62,2.81,2.81,0,0,0,1,.18h2.91a2.54,2.54,0,0,0,1.21-.28,2.16,2.16,0,0,0,.87-.8,2.22,2.22,0,0,0,.8.78,2.24,2.24,0,0,0,1.15.3h2.37a1.58,1.58,0,0,0,1-.36,1.63,1.63,0,0,0,.59-.92,1.78,1.78,0,0,0,.65.93,1.82,1.82,0,0,0,1.09.35h1.71a1.74,1.74,0,0,0,.5-.08,3.82,3.82,0,0,0,.46-.21,1.73,1.73,0,0,0,.66-.61,7.42,7.42,0,0,0,.69.34q.39.18.81.33c.28.1.57.18.85.25a3.79,3.79,0,0,0,.77.1,2.5,2.5,0,0,0,1.68-.65,2.19,2.19,0,0,0,.5-.7,2.06,2.06,0,0,0,.18-.85,2.92,2.92,0,0,0-.09-.73C160.66,143.79,160.6,143.57,160.55,143.35Zm-50.06,1.4a.57.57,0,0,1-.35.12,2.8,2.8,0,0,1-.66-.09c-.24-.07-.49-.14-.74-.23s-.5-.18-.76-.29l-.73-.31a6,6,0,0,1,.36-.6,3.72,3.72,0,0,1,.41-.53,1.93,1.93,0,0,1,.45-.37,1,1,0,0,1,.53-.14,1.23,1.23,0,0,1,.6.16,2,2,0,0,1,.53.44,2.38,2.38,0,0,1,.37.64,1.89,1.89,0,0,1,.14.75A.55.55,0,0,1,110.49,144.75Z"/><path class="cls-2" d="M198.83,143.35l-.83-3.09-1.7.52c.21.74.39,1.34.52,1.8s.24.83.31,1.11.13.47.16.6a1.16,1.16,0,0,1,0,.26.38.38,0,0,1-.43.43,3.65,3.65,0,0,1-1.37-.28,11.07,11.07,0,0,1-1.29-.61c0-.26,0-.54,0-.86s0-.61.05-.89,0-.64,0-1l-1.71-.07-.15,2.24c0,.24-.05.44-.07.6a.78.78,0,0,1-.18.4.8.8,0,0,1-.37.22,2.57,2.57,0,0,1-.63.06h-.7a1.27,1.27,0,0,1-.63-.14,1.39,1.39,0,0,1-.44-.36,1.75,1.75,0,0,1-.26-.51,1.88,1.88,0,0,1-.09-.57l-.09-2-1.71.07.07,1.88a5.81,5.81,0,0,1,0,.75,1.35,1.35,0,0,1-.14.51.65.65,0,0,1-.34.29,1.77,1.77,0,0,1-.62.09h-3.24l.45-.34.38-.32a3.66,3.66,0,0,0,.68-.82,2,2,0,0,0,.27-1,2,2,0,0,0-.57-1.51,2.4,2.4,0,0,0-1.74-.56h-5.49l-.5,1.91,2.66,2.66h-6.94c-.36,0-.58-.06-.66-.19a1.53,1.53,0,0,1-.18-.57l-.86-6.17-1.7.3.15,1.15q-.57.32-1.23.72a10.77,10.77,0,0,0-1.21.89,4.4,4.4,0,0,0-.93,1.06,2.19,2.19,0,0,0-.23,2,1.72,1.72,0,0,0,.4.66,2,2,0,0,0,.64.46,2.21,2.21,0,0,0,.87.17h1.13a3.94,3.94,0,0,0,.95-.07.4.4,0,0,0,.3-.35h.13a2,2,0,0,0,.19.83,2,2,0,0,0,1,1,1.79,1.79,0,0,0,.68.13h7.13a3.09,3.09,0,0,0,2.23-.91,3.24,3.24,0,0,0,1,.68,3.4,3.4,0,0,0,1.23.23h3.56a1.65,1.65,0,0,0,1.61-1.28,1.74,1.74,0,0,0,.66.93,1.8,1.8,0,0,0,1.09.35H192a1.67,1.67,0,0,0,.49-.08,3.82,3.82,0,0,0,.46-.21,2,2,0,0,0,.39-.28,1.57,1.57,0,0,0,.27-.33,7.42,7.42,0,0,0,.69.34q.39.18.81.33c.29.1.57.18.85.25a3.88,3.88,0,0,0,.78.1,2.41,2.41,0,0,0,.93-.18,2.46,2.46,0,0,0,.74-.47,2.19,2.19,0,0,0,.5-.7,1.92,1.92,0,0,0,.19-.85,2.52,2.52,0,0,0-.1-.73C198.94,143.79,198.88,143.57,198.83,143.35Zm-31.57,0c-.16,0-.25-.07-.25-.23a.72.72,0,0,1,.23-.46,4.67,4.67,0,0,1,.55-.52,6.88,6.88,0,0,1,.74-.51c.27-.17.53-.32.76-.45l.32,2.17Zm15.45-.2c-.15.15-.35.33-.6.55l-1,.87-2.44-2.4h3.65a2.89,2.89,0,0,1,.53.05.27.27,0,0,1,.25.29.47.47,0,0,1-.08.27A1.71,1.71,0,0,1,182.71,143.15Z"/><path class="cls-2" d="M213.67,142.34l-.56-2.39-1.63.51c.08.32.16.68.25,1.07s.17.76.25,1.14.14.7.2,1a4.76,4.76,0,0,1,.08.65q0,.33-.21.42a1.78,1.78,0,0,1-.67.09h-3.13a10.57,10.57,0,0,0-.29-1.65,4.85,4.85,0,0,0-.61-1.47,3.48,3.48,0,0,0-1-1.06,2.73,2.73,0,0,0-1.52-.4,2.6,2.6,0,0,0-1.42.38,3.53,3.53,0,0,0-1,1,4.36,4.36,0,0,0-.66,1.31,4.47,4.47,0,0,0-.23,1.41,2.37,2.37,0,0,0,.2,1,2.41,2.41,0,0,0,.54.79,2.48,2.48,0,0,0,.8.53,2.55,2.55,0,0,0,1,.2h2.48a6.88,6.88,0,0,1-.3.94,3.07,3.07,0,0,1-.46.75,2,2,0,0,1-1.52.69,4.79,4.79,0,0,1-1.35-.18,12.83,12.83,0,0,1-1.24-.41l-.54,1.82.73.25.83.25c.28.07.56.14.83.19a4.08,4.08,0,0,0,.74.07,3.08,3.08,0,0,0,1.59-.4,4,4,0,0,0,1.19-1,5.59,5.59,0,0,0,.82-1.4,7.53,7.53,0,0,0,.42-1.54h3.26a2.72,2.72,0,0,0,1-.18,2.39,2.39,0,0,0,.79-.53,2.35,2.35,0,0,0,.52-.84,3.08,3.08,0,0,0,.19-1.13,4.22,4.22,0,0,0-.08-.83C213.83,143,213.76,142.7,213.67,142.34Zm-9.77,2.49a.71.71,0,0,1-.55-.18.73.73,0,0,1-.17-.51,1.85,1.85,0,0,1,.14-.69,2.24,2.24,0,0,1,.35-.58,2.19,2.19,0,0,1,.52-.4,1.21,1.21,0,0,1,.61-.16,1.2,1.2,0,0,1,.81.26,1.76,1.76,0,0,1,.5.64,3.43,3.43,0,0,1,.27.82c.07.29.11.56.15.8Z"/><polygon class="cls-2" points="211.8 137.06 210.6 135.89 209.44 137.07 210.62 138.25 211.8 137.06"/><polygon class="cls-2" points="212.29 137.07 213.47 138.25 214.62 137.06 213.43 135.89 212.29 137.07"/><path class="cls-2" d="M225,142.16a4,4,0,0,0-1.07-1.37,2.69,2.69,0,0,0-1.73-.54,2.57,2.57,0,0,0-1.41.38,3.69,3.69,0,0,0-1,1,4.59,4.59,0,0,0-.65,1.31,4.49,4.49,0,0,0-.24,1.41,2.54,2.54,0,0,0,.2,1,2.77,2.77,0,0,0,.54.79,2.64,2.64,0,0,0,.81.53,2.55,2.55,0,0,0,1,.2h2.47a4.91,4.91,0,0,1-.3.94,2.77,2.77,0,0,1-.45.75,2,2,0,0,1-.65.5,1.86,1.86,0,0,1-.87.19,4.79,4.79,0,0,1-1.35-.18,13,13,0,0,1-1.25-.41l-.53,1.82.72.25.84.25c.28.07.55.14.83.19a4,4,0,0,0,.74.07,3.14,3.14,0,0,0,1.8-.52,4.48,4.48,0,0,0,1.28-1.32,6,6,0,0,0,.76-1.71,6.11,6.11,0,0,0,.26-1.73,11.69,11.69,0,0,0-.16-1.93A6.51,6.51,0,0,0,225,142.16Zm-3.69,2.67a.71.71,0,0,1-.55-.18.73.73,0,0,1-.17-.51,2.06,2.06,0,0,1,.13-.69,2,2,0,0,1,.36-.58,1.85,1.85,0,0,1,.52-.4,1.17,1.17,0,0,1,.6-.16,1.21,1.21,0,0,1,.82.26,1.76,1.76,0,0,1,.5.64,3.43,3.43,0,0,1,.27.82c.06.29.11.56.14.8Z"/><path class="cls-2" d="M251.9,141l-1.41-.93a2.38,2.38,0,0,0-1.26-.41,2.17,2.17,0,0,0-.95.21,3.43,3.43,0,0,0-.81.53,5.18,5.18,0,0,0-.67.73,5.37,5.37,0,0,0-.51.8l1.31.81a2.09,2.09,0,0,1,.73-.77,1.74,1.74,0,0,1,.85-.24,1.6,1.6,0,0,1,.8.24c.28.16.56.33.85.53s.58.37.87.53a1.83,1.83,0,0,0,.89.24h.55v.08l-5.65,1.43-.35.08a2,2,0,0,1-.35,0H235.5v2h3.24v.68a1.72,1.72,0,0,1-.3,1.07,1.77,1.77,0,0,1-.8.58,4.2,4.2,0,0,1-1.14.22c-.43,0-.88,0-1.35,0s-1.1,0-1.5-.06a2.46,2.46,0,0,1-1-.3,1.35,1.35,0,0,1-.54-.66,3,3,0,0,1-.17-1.15,9.62,9.62,0,0,1,.18-1.83,14.7,14.7,0,0,1,.42-1.68l-1.66-.45a16.65,16.65,0,0,0-.48,1.91,10.86,10.86,0,0,0-.19,2.05,5.12,5.12,0,0,0,.35,2,3.13,3.13,0,0,0,1,1.29,4.06,4.06,0,0,0,1.55.68,9.63,9.63,0,0,0,2,.2,12.55,12.55,0,0,0,2.09-.17,4.47,4.47,0,0,0,1.68-.61,3.25,3.25,0,0,0,1.14-1.24,4.42,4.42,0,0,0,.41-2v-.28a2.45,2.45,0,0,0,0-.27h6.62a2.32,2.32,0,0,0,.7-.1l8-2.69v-1.47a6.15,6.15,0,0,1-2.18-.61A15.48,15.48,0,0,1,251.9,141Z"/><path class="cls-2" d="M259.39,137c0-.6,0-1.2-.07-1.79s-.11-1.19-.2-1.79l-1.66.25a13.85,13.85,0,0,1,.16,1.67c0,.54,0,1.09,0,1.66v9.84h1.72Z"/><path class="cls-2" d="M278.66,143a4.51,4.51,0,0,0-.65-1.32,3.63,3.63,0,0,0-1-1,2.53,2.53,0,0,0-1.39-.39,3.6,3.6,0,0,0-1.26.24,6.37,6.37,0,0,0-1.27.65,10.47,10.47,0,0,0-1.25.94c-.42.35-.83.71-1.23,1.09l-.08-.06.13-.14a1.06,1.06,0,0,0,.15-.15,2.1,2.1,0,0,0,.37-.45,1,1,0,0,0,.13-.54v-8.42h-1.73v9.13a5.72,5.72,0,0,1,0,.62,2,2,0,0,1-.12.49,1.7,1.7,0,0,1-.26.45,4.38,4.38,0,0,1-.43.47,2.28,2.28,0,0,1-.27.21.37.37,0,0,1-.2.05h-1.51a1.72,1.72,0,0,1-.9-.2,1.75,1.75,0,0,1-.56-.52,2.69,2.69,0,0,1-.32-.66c-.08-.24-.15-.46-.2-.66l-.53-2-1.65.66c.11.35.22.71.33,1.09s.22.77.3,1.17.16.8.22,1.19a7.72,7.72,0,0,1,.08,1.16,4.19,4.19,0,0,1-.17,1.17,3.78,3.78,0,0,1-.48,1,2.53,2.53,0,0,1-.75.71,1.84,1.84,0,0,1-1,.27,5.7,5.7,0,0,1-1.06-.1,7.89,7.89,0,0,1-1-.29l-.51,1.82c.42.13.87.26,1.34.38a5.07,5.07,0,0,0,1.24.18,3,3,0,0,0,1.7-.49,4.94,4.94,0,0,0,1.3-1.24,5.73,5.73,0,0,0,.82-1.64,5.47,5.47,0,0,0,.28-1.68,2.27,2.27,0,0,0,.54.49,1.47,1.47,0,0,0,.79.19h9.83a2.48,2.48,0,0,0,1-.2,2.72,2.72,0,0,0,.8-.53,2.77,2.77,0,0,0,.54-.79,2.54,2.54,0,0,0,.2-1A4.63,4.63,0,0,0,278.66,143Zm-1.84,1.9a3,3,0,0,1-1,.12h-4.72a18.31,18.31,0,0,1,2.49-1.95,4,4,0,0,1,1.95-.71,1.16,1.16,0,0,1,.63.18,2,2,0,0,1,.5.46,2.16,2.16,0,0,1,.33.62,2.06,2.06,0,0,1,.12.67A.57.57,0,0,1,276.82,144.85Z"/><path class="cls-3" d="M317.35,125.86v-40L305.2,98.1v15.6h-9.67a9.69,9.69,0,0,1-9.68-9.67V85.9L273.7,98.1V104a9.67,9.67,0,0,1-19.34,0V85.9L242.2,98.1V104a9.67,9.67,0,0,1-19.34,0v-3.79h0V86L210.7,98.1v15.6H201a9.69,9.69,0,0,1-9.66-9.67V56.11h0L179.21,68.25v37l0,0a21.84,21.84,0,0,0,19.2,20.5,19.82,19.82,0,0,0,2.57.16h21.83v-2.29a21.67,21.67,0,0,0,25.42-4.47,21.73,21.73,0,0,0,31.5,0,21.76,21.76,0,0,0,15.75,6.76Z"/><path class="cls-3" d="M109.69,113.7H100A9.69,9.69,0,0,1,90.35,104,21.09,21.09,0,0,0,77.13,84.28c-.37-.15-.74-.28-1.12-.41l27.75-27.76H86.58L48.69,94l0,0-.11.11,8.59,8.59,5.2-5.2a9.27,9.27,0,0,1,15.81,6.56c0,4.6-2.87,9.26-9.26,9.26H13.34L1.19,125.49H68.94a21.33,21.33,0,0,0,15.43-6.29A21.74,21.74,0,0,0,100,125.86h9.65l12.17-12.18V85.89L109.69,98.05Z"/><polygon class="cls-3" points="321.85 86.34 321.85 126.1 334.01 126.1 334.01 73.63 333.99 74.2 321.85 86.34"/><polygon class="cls-3" points="331.27 56.06 319.6 67.74 319.6 84.92 348.47 56.06 331.27 56.06"/><polygon class="cls-3" points="302.43 139.83 294.16 131.55 285.73 139.98 294.16 148.4 302.43 140.13 310.7 148.4 319.12 139.98 310.7 131.55 302.43 139.83"/><polygon class="cls-3" points="107.16 75.24 98.88 66.96 90.46 75.39 98.88 83.81 107.16 75.54 115.43 83.81 123.85 75.39 115.43 66.96 107.16 75.24"/><rect class="cls-3" x="142.77" y="69.43" width="11.91" height="11.91" transform="translate(-9.75 127.25) rotate(-45)"/><path class="cls-3" d="M162.55,108.3a5.35,5.35,0,0,1-9.14,3.79L127.17,85.86V103l17.65,17.64a17.23,17.23,0,0,0,12.26,5.18,17.76,17.76,0,0,0,6.82-1.38,17.22,17.22,0,0,0,10.81-16.18V71.59L162.55,83.74Z"/><polygon class="cls-3" points="114.34 125.86 114.91 125.86 121.85 118.93 121.85 118.36 121.85 116.33 112.33 125.86 114.34 125.86"/></g></g></svg>